# xmcd CD database file generated by Grip 2.95
# 
# Track frame offsets:
#       150
#       10835
#       25877
#       41790
#       53675
#       70035
#       82550
#       97360
#       120197
#       134212
#       148170
#       161355
#       178490
#       190410
#       207535
# 
# Disc length: 2951 seconds
# 
# Revision: 3
# Processed by: cddbd v1.4b41PL1 Copyright (c) Steve Scherf et al.
# Submitted via: Grip 2.95
# 
DISCID=d80b850f
DTITLE=Rag Mama Rag - Rag Mama Rag
DYEAR=1900
DGENRE=
TTITLE0=Diddy Wah Diddy
TTITLE1=Please, Mr. engineer
TTITLE2=Lazy bones
TTITLE3=Keep on truckin'
TTITLE4=Careless love
TTITLE5=Jitterbug rag
TTITLE6=Deep river blues
TTITLE7=How long, how long
TTITLE8=Old coote from Tennesse
TTITLE9=Can't get satisfied
TTITLE10=Penitentiary blues
TTITLE11=Freight train
TTITLE12=Restless blues
TTITLE13=Kind hearted woman
TTITLE14=Last train to Baton Rouge
EXTD=
EXTT0=
EXTT1=
EXTT2=
EXTT3=
EXTT4=
EXTT5=
EXTT6=
EXTT7=
EXTT8=
EXTT9=
EXTT10=
EXTT11=
EXTT12=
EXTT13=
EXTT14=
PLAYORDER=
